# xmcd
#
# Track frame offsets:
#	150
#	16538
#	31860
#	47997
#	57154
#	76425
#	89468
#	103664
#	119745
#	132683
#
# Disc length: 1976 seconds
#
# Revision: 1
# Processed by: cddbd v1.5.1PL0 Copyright (c) Steve Scherf et al.
# Submitted via: audiograbber 1.82.02
#
DISCID=8307b60a
DTITLE=Country Music - Bushland Boogie
DYEAR=1988
DGENRE=Country
TTITLE0=Joe Baranowski - White Line Fever
TTITLE1=Graham Scobie - The Clearing
TTITLE2=Neil Murray - Far Away
TTITLE3=Graham Scobie - 100 Years Australia
TTITLE4=Joe Baranowski - Katherine
TTITLE5=Graham Scobie - God Lives In Australia
TTITLE6=Kate Wolf - Across The Great Divide
TTITLE7=Joe Baranowski - Addicted To Dancing
TTITLE8=Graham Scobie - Bronlee Island
TTITLE9=Slim Dusty - Bushland Bogie
EXTD=
EXTT0=
EXTT1=
EXTT2=
EXTT3=
EXTT4=
EXTT5=
EXTT6=
EXTT7=
EXTT8=
EXTT9=
PLAYORDER=
